<svg width="292" height="120" viewBox="0 0 292 120" fill="none" xmlns="http://www.w3.org/2000/svg">
<g clip-path="url(#clip0_302_2528)">
<path d="M130.104 52.326H126.015C125.94 51.797 125.788 51.3272 125.557 50.9164C125.327 50.4994 125.032 50.1447 124.671 49.8522C124.31 49.5597 123.893 49.3356 123.42 49.1801C122.953 49.0245 122.446 48.9467 121.898 48.9467C120.908 48.9467 120.047 49.1925 119.312 49.6842C118.578 50.1696 118.008 50.8791 117.604 51.8126C117.199 52.7399 116.997 53.8663 116.997 55.1919C116.997 56.5549 117.199 57.7 117.604 58.6273C118.015 59.5546 118.587 60.2548 119.321 60.7277C120.056 61.2007 120.905 61.4372 121.87 61.4372C122.411 61.4372 122.912 61.3656 123.373 61.2225C123.84 61.0794 124.254 60.8709 124.615 60.597C124.976 60.317 125.274 59.9778 125.511 59.5795C125.753 59.1812 125.921 58.7269 126.015 58.2166L130.104 58.2352C129.998 59.1127 129.733 59.9591 129.31 60.7744C128.893 61.5835 128.33 62.3085 127.621 62.9495C126.917 63.5843 126.077 64.0884 125.1 64.4618C124.129 64.829 123.031 65.0126 121.805 65.0126C120.099 65.0126 118.575 64.6268 117.23 63.855C115.892 63.0833 114.834 61.9662 114.056 60.5037C113.285 59.0412 112.899 57.2706 112.899 55.1919C112.899 53.1071 113.291 51.3334 114.075 49.8709C114.859 48.4083 115.923 47.2943 117.268 46.5288C118.612 45.7571 120.124 45.3713 121.805 45.3713C122.912 45.3713 123.939 45.5269 124.885 45.838C125.837 46.1492 126.681 46.6035 127.415 47.201C128.15 47.7922 128.747 48.5173 129.207 49.3761C129.674 50.2349 129.973 51.2182 130.104 52.326ZM150.571 55.1919C150.571 57.2768 150.176 59.0505 149.386 60.513C148.601 61.9755 147.531 63.0927 146.174 63.8644C144.824 64.6299 143.305 65.0126 141.619 65.0126C139.92 65.0126 138.395 64.6268 137.044 63.855C135.694 63.0833 134.627 61.9662 133.842 60.5037C133.058 59.0412 132.666 57.2706 132.666 55.1919C132.666 53.1071 133.058 51.3334 133.842 49.8709C134.627 48.4083 135.694 47.2943 137.044 46.5288C138.395 45.7571 139.92 45.3713 141.619 45.3713C143.305 45.3713 144.824 45.7571 146.174 46.5288C147.531 47.2943 148.601 48.4083 149.386 49.8709C150.176 51.3334 150.571 53.1071 150.571 55.1919ZM146.473 55.1919C146.473 53.8414 146.271 52.7025 145.866 51.7752C145.468 50.8479 144.905 50.1447 144.177 49.6655C143.448 49.1863 142.596 48.9467 141.619 48.9467C140.642 48.9467 139.789 49.1863 139.061 49.6655C138.333 50.1447 137.766 50.8479 137.362 51.7752C136.964 52.7025 136.764 53.8414 136.764 55.1919C136.764 56.5424 136.964 57.6813 137.362 58.6086C137.766 59.5359 138.333 60.2392 139.061 60.7184C139.789 61.1976 140.642 61.4372 141.619 61.4372C142.596 61.4372 143.448 61.1976 144.177 60.7184C144.905 60.2392 145.468 59.5359 145.866 58.6086C146.271 57.6813 146.473 56.5424 146.473 55.1919ZM155.941 45.6327L160.562 60.1583H160.74L165.37 45.6327H169.851L163.26 64.7512H158.051L151.451 45.6327H155.941ZM172.152 64.7512V45.6327H185.035V48.9653H176.194V53.5209H184.372V56.8536H176.194V61.4185H185.072V64.7512H172.152ZM204.239 45.6327V64.7512H200.748L192.43 52.7181H192.29V64.7512H188.248V45.6327H191.796L200.048 57.6564H200.216V45.6327H204.239ZM210.874 64.7512H206.543L213.143 45.6327H218.352L224.943 64.7512H220.611L215.822 50.0016H215.673L210.874 64.7512ZM210.604 57.2364H220.835V60.3917H210.604V57.2364ZM243.235 45.6327V64.7512H239.744L231.426 52.7181H231.286V64.7512H227.244V45.6327H230.791L239.043 57.6564H239.212V45.6327H243.235ZM245.847 48.9653V45.6327H261.548V48.9653H255.695V64.7512H251.7V48.9653H245.847Z" fill="white"/>
<path d="M130.104 77.3189H126.015C125.94 76.79 125.788 76.3201 125.557 75.9093C125.327 75.4924 125.032 75.1376 124.671 74.8451C124.31 74.5526 123.893 74.3286 123.42 74.173C122.953 74.0174 122.446 73.9396 121.898 73.9396C120.908 73.9396 120.047 74.1854 119.312 74.6771C118.578 75.1625 118.008 75.872 117.604 76.8055C117.199 77.7328 116.997 78.8593 116.997 80.1849C116.997 81.5478 117.199 82.6929 117.604 83.6202C118.015 84.5475 118.587 85.2477 119.321 85.7207C120.056 86.1936 120.905 86.4301 121.87 86.4301C122.411 86.4301 122.912 86.3586 123.373 86.2154C123.84 86.0723 124.254 85.8638 124.615 85.59C124.976 85.3099 125.274 84.9707 125.511 84.5724C125.753 84.1741 125.921 83.7198 126.015 83.2095L130.104 83.2281C129.998 84.1057 129.733 84.9521 129.31 85.7673C128.893 86.5764 128.33 87.3014 127.621 87.9424C126.917 88.5772 126.077 89.0813 125.1 89.4547C124.129 89.8219 123.031 90.0055 121.805 90.0055C120.099 90.0055 118.575 89.6197 117.23 88.848C115.892 88.0762 114.834 86.9591 114.056 85.4966C113.285 84.0341 112.899 82.2635 112.899 80.1849C112.899 78.1 113.291 76.3263 114.075 74.8638C114.859 73.4013 115.923 72.2873 117.268 71.5218C118.612 70.7501 120.124 70.3642 121.805 70.3642C122.912 70.3642 123.939 70.5198 124.885 70.831C125.837 71.1421 126.681 71.5965 127.415 72.1939C128.15 72.7851 128.747 73.5102 129.207 74.369C129.674 75.2279 129.973 76.2112 130.104 77.3189ZM133.002 89.7441V70.6256H137.044V78.5139H145.25V70.6256H149.283V89.7441H145.25V81.8465H137.044V89.7441H133.002ZM156.658 70.6256V89.7441H152.616V70.6256H156.658ZM159.983 89.7441V70.6256H164.026V86.4115H172.222V89.7441H159.983ZM181.676 89.7441H174.899V70.6256H181.732C183.655 70.6256 185.311 71.0083 186.699 71.7738C188.086 72.5331 189.154 73.6253 189.901 75.0505C190.654 76.4757 191.03 78.1809 191.03 80.1662C191.03 82.1577 190.654 83.8692 189.901 85.3006C189.154 86.732 188.08 87.8304 186.68 88.5959C185.286 89.3614 183.618 89.7441 181.676 89.7441ZM178.941 86.2808H181.508C182.703 86.2808 183.708 86.0692 184.523 85.646C185.345 85.2166 185.961 84.5538 186.372 83.6576C186.789 82.7552 186.997 81.5914 186.997 80.1662C186.997 78.7535 186.789 77.599 186.372 76.7028C185.961 75.8066 185.348 75.147 184.533 74.7238C183.717 74.3006 182.712 74.089 181.517 74.089H178.941V86.2808ZM194.024 89.7441V70.6256H201.567C203.011 70.6256 204.243 70.8839 205.264 71.4004C206.291 71.9107 207.072 72.6358 207.607 73.5755C208.149 74.509 208.419 75.6075 208.419 76.8709C208.419 78.1404 208.145 79.2327 207.598 80.1475C207.05 81.0562 206.257 81.7532 205.217 82.2386C204.184 82.724 202.933 82.9668 201.465 82.9668H196.414V79.7181H200.811C201.583 79.7181 202.224 79.6123 202.734 79.4007C203.244 79.1891 203.624 78.8717 203.873 78.4485C204.128 78.0253 204.256 77.4994 204.256 76.8709C204.256 76.2361 204.128 75.7008 203.873 75.2652C203.624 74.8296 203.241 74.4997 202.725 74.2757C202.214 74.0454 201.57 73.9303 200.792 73.9303H198.066V89.7441H194.024ZM204.349 81.0437L209.101 89.7441H204.639L199.99 81.0437H204.349ZM211.276 89.7441V70.6256H224.158V73.9583H215.318V78.5139H223.496V81.8465H215.318V86.4115H224.196V89.7441H211.276ZM243.363 70.6256V89.7441H239.872L231.554 77.711H231.414V89.7441H227.372V70.6256H230.92L239.172 82.6494H239.34V70.6256H243.363Z" fill="white"/>
<path d="M112.583 96.6659H113.788L116.623 103.591H116.721L119.556 96.6659H120.762V105.009H119.817V98.6701H119.736L117.129 105.009H116.216L113.609 98.6701H113.528V105.009H112.583V96.6659ZM123.798 96.6659V105.009H122.788V96.6659H123.798ZM132.439 96.6659V105.009H131.461L126.915 98.4583H126.834V105.009H125.824V96.6659H126.801L131.364 103.232H131.445V96.6659H132.439ZM135.471 96.6659V105.009H134.461V96.6659H135.471ZM142.059 98.7516C142.01 98.3388 141.812 98.0183 141.464 97.7902C141.116 97.5621 140.69 97.448 140.185 97.448C139.816 97.448 139.492 97.5078 139.215 97.6273C138.941 97.7468 138.727 97.9111 138.572 98.1202C138.42 98.3293 138.344 98.5669 138.344 98.833C138.344 99.0557 138.397 99.2472 138.503 99.4074C138.611 99.5649 138.75 99.6966 138.918 99.8025C139.086 99.9057 139.263 99.9913 139.448 100.059C139.632 100.124 139.802 100.177 139.957 100.218L140.804 100.446C141.021 100.503 141.263 100.582 141.529 100.682C141.798 100.783 142.055 100.92 142.299 101.094C142.546 101.265 142.75 101.485 142.91 101.754C143.07 102.023 143.15 102.353 143.15 102.744C143.15 103.194 143.032 103.602 142.796 103.966C142.563 104.33 142.22 104.619 141.77 104.833C141.321 105.048 140.777 105.155 140.136 105.155C139.539 105.155 139.021 105.059 138.584 104.866C138.15 104.673 137.807 104.404 137.557 104.059C137.31 103.715 137.17 103.314 137.138 102.858H138.181C138.208 103.173 138.314 103.433 138.498 103.64C138.686 103.844 138.922 103.996 139.207 104.096C139.495 104.194 139.805 104.243 140.136 104.243C140.522 104.243 140.868 104.18 141.175 104.055C141.482 103.928 141.725 103.751 141.904 103.526C142.083 103.298 142.173 103.032 142.173 102.727C142.173 102.45 142.095 102.225 141.941 102.051C141.786 101.877 141.582 101.736 141.33 101.627C141.077 101.519 140.804 101.424 140.511 101.342L139.484 101.049C138.833 100.862 138.317 100.594 137.936 100.247C137.556 99.8989 137.366 99.4441 137.366 98.8819C137.366 98.4148 137.492 98.0075 137.745 97.6599C138 97.3095 138.342 97.038 138.771 96.8451C139.203 96.6496 139.685 96.5518 140.218 96.5518C140.755 96.5518 141.233 96.6483 141.651 96.8411C142.07 97.0312 142.401 97.2919 142.645 97.6232C142.892 97.9545 143.023 98.3306 143.036 98.7516H142.059ZM144.355 97.5621V96.6659H150.612V97.5621H147.989V105.009H146.979V97.5621H144.355ZM152.171 105.009V96.6659H154.99C155.642 96.6659 156.177 96.7772 156.595 96.9999C157.013 97.2199 157.323 97.5227 157.524 97.9083C157.725 98.294 157.825 98.7326 157.825 99.2241C157.825 99.7156 157.725 100.152 157.524 100.532C157.323 100.912 157.015 101.211 156.599 101.428C156.184 101.642 155.653 101.75 155.007 101.75H152.725V100.837H154.974C155.419 100.837 155.778 100.772 156.049 100.642C156.324 100.511 156.522 100.327 156.644 100.088C156.769 99.846 156.832 99.5581 156.832 99.2241C156.832 98.8901 156.769 98.5981 156.644 98.3483C156.519 98.0984 156.32 97.9056 156.045 97.7698C155.771 97.6313 155.408 97.5621 154.958 97.5621H153.182V105.009H152.171ZM156.098 101.261L158.151 105.009H156.978L154.958 101.261H156.098ZM158.512 96.6659H159.669L161.983 100.56H162.08L164.394 96.6659H165.551L162.537 101.57V105.009H161.526V101.57L158.512 96.6659ZM171.094 96.6659V105.009H170.084V96.6659H171.094ZM179.735 96.6659V105.009H178.757L174.211 98.4583H174.13V105.009H173.12V96.6659H174.097L178.66 103.232H178.741V96.6659H179.735ZM181.3 97.5621V96.6659H187.557V97.5621H184.934V105.009H183.924V97.5621H181.3ZM189.116 105.009V96.6659H194.151V97.5621H190.127V100.381H193.891V101.277H190.127V104.112H194.217V105.009H189.116ZM195.972 105.009V96.6659H198.791C199.443 96.6659 199.978 96.7772 200.396 96.9999C200.814 97.2199 201.124 97.5227 201.325 97.9083C201.526 98.294 201.626 98.7326 201.626 99.2241C201.626 99.7156 201.526 100.152 201.325 100.532C201.124 100.912 200.816 101.211 200.4 101.428C199.985 101.642 199.454 101.75 198.807 101.75H196.526V100.837H198.775C199.22 100.837 199.579 100.772 199.85 100.642C200.125 100.511 200.323 100.327 200.445 100.088C200.57 99.846 200.632 99.5581 200.632 99.2241C200.632 98.8901 200.57 98.5981 200.445 98.3483C200.32 98.0984 200.121 97.9056 199.846 97.7698C199.572 97.6313 199.209 97.5621 198.759 97.5621H196.983V105.009H195.972ZM199.899 101.261L201.952 105.009H200.779L198.759 101.261H199.899ZM209.925 96.6659V105.009H208.948L204.401 98.4583H204.32V105.009H203.31V96.6659H204.287L208.85 103.232H208.931V96.6659H209.925ZM212.289 105.009H211.23L214.293 96.6659H215.336L218.399 105.009H217.34L214.847 97.9857H214.782L212.289 105.009ZM212.68 101.75H216.949V102.646H212.68V101.75ZM218.268 97.5621V96.6659H224.525V97.5621H221.901V105.009H220.891V97.5621H218.268ZM227.094 96.6659V105.009H226.084V96.6659H227.094ZM236.159 100.837C236.159 101.717 236 102.478 235.682 103.118C235.365 103.759 234.929 104.254 234.375 104.601C233.821 104.949 233.188 105.123 232.476 105.123C231.765 105.123 231.132 104.949 230.578 104.601C230.024 104.254 229.588 103.759 229.271 103.118C228.953 102.478 228.794 101.717 228.794 100.837C228.794 99.9573 228.953 99.1969 229.271 98.556C229.588 97.9151 230.024 97.4209 230.578 97.0733C231.132 96.7256 231.765 96.5518 232.476 96.5518C233.188 96.5518 233.821 96.7256 234.375 97.0733C234.929 97.4209 235.365 97.9151 235.682 98.556C236 99.1969 236.159 99.9573 236.159 100.837ZM235.181 100.837C235.181 100.115 235.06 99.5052 234.819 99.0082C234.58 98.5112 234.255 98.1351 233.845 97.8798C233.438 97.6245 232.982 97.4969 232.476 97.4969C231.971 97.4969 231.514 97.6245 231.104 97.8798C230.696 98.1351 230.372 98.5112 230.13 99.0082C229.891 99.5052 229.772 100.115 229.772 100.837C229.772 101.56 229.891 102.169 230.13 102.666C230.372 103.163 230.696 103.539 231.104 103.795C231.514 104.05 231.971 104.178 232.476 104.178C232.982 104.178 233.438 104.05 233.845 103.795C234.255 103.539 234.58 103.163 234.819 102.666C235.06 102.169 235.181 101.56 235.181 100.837ZM244.473 96.6659V105.009H243.495L238.949 98.4583H238.868V105.009H237.858V96.6659H238.835L243.398 103.232H243.479V96.6659H244.473ZM246.837 105.009H245.778L248.841 96.6659H249.884L252.947 105.009H251.888L249.395 97.9857H249.33L246.837 105.009ZM247.228 101.75H251.497V102.646H247.228V101.75ZM254.247 105.009V96.6659H255.257V104.112H259.135V105.009H254.247Z" fill="white"/>
<path d="M96.4235 74.0531V106.203H80.3496V60.4622L96.4235 74.0531Z" fill="white"/>
<path d="M0.0976562 73.8338V105.986H16.1716V60.2429L0.0976562 73.8338Z" fill="white"/>
<path d="M30.8082 117.64V111.684H34.4029V112.324H31.5295V114.336H34.2168V114.976H31.5295V117H34.4494V117.64H30.8082ZM38.7742 114.173L38.1576 114.348C38.1188 114.245 38.0616 114.145 37.986 114.048C37.9123 113.949 37.8115 113.868 37.6835 113.804C37.5556 113.74 37.3917 113.708 37.192 113.708C36.9186 113.708 36.6908 113.771 36.5085 113.897C36.3282 114.021 36.2381 114.179 36.2381 114.371C36.2381 114.542 36.3001 114.677 36.4242 114.775C36.5483 114.874 36.7422 114.957 37.0059 115.023L37.669 115.185C38.0684 115.282 38.366 115.431 38.5618 115.63C38.7577 115.828 38.8556 116.083 38.8556 116.395C38.8556 116.651 38.7819 116.88 38.6346 117.082C38.4891 117.283 38.2856 117.442 38.0238 117.559C37.762 117.675 37.4576 117.733 37.1106 117.733C36.6549 117.733 36.2778 117.634 35.9792 117.437C35.6806 117.239 35.4916 116.95 35.4121 116.57L36.0636 116.407C36.1256 116.647 36.2429 116.828 36.4155 116.948C36.59 117.068 36.8178 117.128 37.0989 117.128C37.4189 117.128 37.6729 117.06 37.8609 116.925C38.0509 116.787 38.146 116.622 38.146 116.43C38.146 116.275 38.0917 116.145 37.9831 116.041C37.8745 115.934 37.7078 115.854 37.4828 115.802L36.7383 115.628C36.3292 115.531 36.0287 115.38 35.8367 115.177C35.6467 114.971 35.5517 114.714 35.5517 114.406C35.5517 114.154 35.6225 113.931 35.764 113.737C35.9075 113.543 36.1024 113.391 36.3486 113.281C36.5968 113.17 36.8779 113.115 37.192 113.115C37.6341 113.115 37.9811 113.212 38.2332 113.406C38.4872 113.599 38.6675 113.855 38.7742 114.173ZM41.8316 113.173V113.755H39.5165V113.173H41.8316ZM40.1912 112.103H40.8776V116.36C40.8776 116.554 40.9057 116.7 40.962 116.797C41.0201 116.892 41.0938 116.956 41.183 116.989C41.2741 117.02 41.3701 117.035 41.4709 117.035C41.5465 117.035 41.6086 117.031 41.6571 117.024C41.7055 117.014 41.7443 117.006 41.7734 117L41.913 117.617C41.8665 117.634 41.8015 117.652 41.7181 117.669C41.6348 117.689 41.5291 117.698 41.4011 117.698C41.2072 117.698 41.0172 117.657 40.8311 117.573C40.6469 117.49 40.4937 117.363 40.3716 117.192C40.2514 117.022 40.1912 116.806 40.1912 116.547V112.103ZM43.3643 117.687C43.2208 117.687 43.0977 117.635 42.9949 117.533C42.8921 117.43 42.8408 117.307 42.8408 117.163C42.8408 117.02 42.8921 116.897 42.9949 116.794C43.0977 116.691 43.2208 116.64 43.3643 116.64C43.5077 116.64 43.6309 116.691 43.7336 116.794C43.8364 116.897 43.8878 117.02 43.8878 117.163C43.8878 117.258 43.8635 117.345 43.8151 117.425C43.7685 117.504 43.7055 117.568 43.626 117.617C43.5485 117.663 43.4612 117.687 43.3643 117.687ZM47.4112 117.64V117.117L49.3773 114.964C49.608 114.712 49.798 114.493 49.9473 114.307C50.0966 114.119 50.2071 113.943 50.2789 113.778C50.3525 113.611 50.3894 113.437 50.3894 113.254C50.3894 113.045 50.339 112.864 50.2381 112.71C50.1393 112.557 50.0035 112.439 49.831 112.356C49.6584 112.272 49.4645 112.231 49.2493 112.231C49.0205 112.231 48.8208 112.278 48.6502 112.373C48.4815 112.466 48.3506 112.597 48.2576 112.766C48.1664 112.934 48.1209 113.132 48.1209 113.359H47.4345C47.4345 113.01 47.515 112.704 47.6759 112.44C47.8368 112.176 48.0559 111.971 48.3332 111.823C48.6124 111.676 48.9255 111.602 49.2726 111.602C49.6216 111.602 49.9308 111.676 50.2003 111.823C50.4698 111.971 50.6812 112.17 50.8344 112.42C50.9875 112.67 51.0641 112.948 51.0641 113.254C51.0641 113.473 51.0244 113.688 50.9449 113.897C50.8673 114.105 50.7316 114.336 50.5377 114.592C50.3457 114.846 50.0792 115.156 49.7379 115.523L48.4001 116.954V117H51.1688V117.64H47.4112ZM54.3127 117.722C53.8745 117.722 53.5013 117.602 53.193 117.364C52.8847 117.123 52.6492 116.775 52.4863 116.32C52.3234 115.862 52.242 115.31 52.242 114.662C52.242 114.018 52.3234 113.469 52.4863 113.013C52.6511 112.555 52.8876 112.206 53.1959 111.966C53.5062 111.724 53.8784 111.602 54.3127 111.602C54.7471 111.602 55.1183 111.724 55.4266 111.966C55.7369 112.206 55.9734 112.555 56.1363 113.013C56.3011 113.469 56.3835 114.018 56.3835 114.662C56.3835 115.31 56.302 115.862 56.1392 116.32C55.9763 116.775 55.7407 117.123 55.4325 117.364C55.1242 117.602 54.7509 117.722 54.3127 117.722ZM54.3127 117.082C54.7471 117.082 55.0844 116.872 55.3248 116.454C55.5653 116.035 55.6855 115.438 55.6855 114.662C55.6855 114.146 55.6302 113.707 55.5197 113.345C55.4111 112.982 55.2541 112.706 55.0485 112.516C54.845 112.326 54.5997 112.231 54.3127 112.231C53.8823 112.231 53.5459 112.443 53.3035 112.868C53.0612 113.29 52.94 113.888 52.94 114.662C52.94 115.178 52.9943 115.616 53.1029 115.977C53.2114 116.337 53.3675 116.612 53.5711 116.8C53.7766 116.988 54.0238 117.082 54.3127 117.082ZM59.4314 117.722C58.9932 117.722 58.62 117.602 58.3117 117.364C58.0034 117.123 57.7679 116.775 57.605 116.32C57.4421 115.862 57.3607 115.31 57.3607 114.662C57.3607 114.018 57.4421 113.469 57.605 113.013C57.7698 112.555 58.0063 112.206 58.3146 111.966C58.6249 111.724 58.9971 111.602 59.4314 111.602C59.8657 111.602 60.237 111.724 60.5453 111.966C60.8556 112.206 61.0921 112.555 61.255 113.013C61.4198 113.469 61.5022 114.018 61.5022 114.662C61.5022 115.31 61.4207 115.862 61.2579 116.32C61.095 116.775 60.8594 117.123 60.5511 117.364C60.2429 117.602 59.8696 117.722 59.4314 117.722ZM59.4314 117.082C59.8657 117.082 60.2031 116.872 60.4435 116.454C60.684 116.035 60.8042 115.438 60.8042 114.662C60.8042 114.146 60.7489 113.707 60.6384 113.345C60.5298 112.982 60.3728 112.706 60.1672 112.516C59.9637 112.326 59.7184 112.231 59.4314 112.231C59.001 112.231 58.6646 112.443 58.4222 112.868C58.1799 113.29 58.0587 113.888 58.0587 114.662C58.0587 115.178 58.113 115.616 58.2216 115.977C58.3301 116.337 58.4862 116.612 58.6898 116.8C58.8953 116.988 59.1425 117.082 59.4314 117.082ZM62.6335 117.64L65.2976 112.37V112.324H62.2264V111.684H66.0421V112.359L63.3897 117.64H62.6335Z" fill="white"/>
<path d="M43.5055 16.9104C43.6991 16.5902 43.8903 16.301 44.0528 15.9999C44.4952 15.1947 44.7247 14.2898 44.7195 13.3711C44.7144 12.8883 44.6337 12.4094 44.4806 11.9515C44.1505 10.9716 43.9325 9.9574 43.8305 8.9284C43.6561 7.07151 43.8974 5.28153 44.8008 3.623C45.6299 2.08645 46.916 0.845492 48.4811 0.0717261C48.4923 0.0639405 48.5043 0.0575217 48.517 0.0526075C48.5863 0.0287093 48.6699 -0.0477649 48.7249 0.0526075C48.7351 0.0856799 48.7386 0.120437 48.7353 0.154886C48.7321 0.189335 48.722 0.222797 48.7058 0.253352C48.5576 0.592707 48.3879 0.924892 48.2541 1.27142C47.8094 2.39935 47.6113 3.60944 47.6734 4.8203C47.7558 6.25775 48.1471 7.66055 48.8205 8.93318C49.635 10.5051 50.7207 11.9209 52.0276 13.1154L52.085 13.1632C52.085 13.0245 52.0658 12.9074 52.0587 12.788C52.0201 12.1231 52.1203 11.4574 52.3527 10.8333C52.5851 10.2092 52.9448 9.64027 53.4089 9.1626C54.0843 8.42731 54.8959 7.82998 55.7987 7.40369C55.8278 7.38488 55.8603 7.37189 55.8943 7.36546C55.9469 7.36546 56.021 7.36546 56.0425 7.39174C56.0525 7.41571 56.0564 7.44178 56.0539 7.46763C56.0514 7.49347 56.0426 7.5183 56.0282 7.53991C55.75 7.93583 55.5669 8.3905 55.4929 8.86865C55.3425 9.78331 55.3587 10.7176 55.5406 11.6265C55.8364 13.2014 56.3319 14.7321 57.0152 16.1815C57.4734 17.1749 57.7819 18.2307 57.9305 19.3146C58.1721 20.8635 57.8316 22.447 56.9745 23.7596C56.3293 24.7037 55.485 25.495 54.5011 26.0777C53.6652 26.5819 52.7754 26.9907 51.8484 27.2965C51.7743 27.3228 51.7002 27.3515 51.6548 27.2583C51.6094 27.1651 51.6859 27.1269 51.748 27.0839C52.3267 26.7417 52.7609 26.2004 52.9694 25.5613C53.1778 24.9222 53.1464 24.229 52.8808 23.6114C52.7224 23.1383 52.4795 22.6978 52.1638 22.3114C51.8781 21.9531 51.7051 21.5181 51.6667 21.0615C51.6116 20.544 51.6269 20.0215 51.7122 19.5081C51.4897 19.6524 51.2927 19.8324 51.129 20.0411C50.7357 20.5528 50.5397 21.189 50.577 21.8334C50.586 22.2192 50.6512 22.6016 50.7706 22.9686C50.7945 23.0403 50.8327 23.1287 50.7395 23.1598C50.7073 23.1625 50.6748 23.1578 50.6446 23.1462C50.6144 23.1347 50.5872 23.1164 50.565 23.0929C50.089 22.581 49.8126 21.9153 49.786 21.2168C49.7797 20.9282 49.8184 20.6404 49.9007 20.3637C50.129 19.6697 50.2444 18.9435 50.2424 18.2128C50.2384 17.5378 50.0604 16.8752 49.7255 16.2891C49.3905 15.703 48.9101 15.2132 48.3306 14.8671L48.2732 14.836C48.2752 14.8579 48.2792 14.8795 48.2852 14.9006C48.8492 16.2508 48.7488 17.5724 48.1322 18.8796C47.7029 19.7455 47.1096 20.5198 46.3852 21.1595C46.328 21.1904 46.2657 21.2106 46.2012 21.2192C46.1767 21.1625 46.1629 21.1018 46.1606 21.04C46.2286 20.6446 46.1895 20.2381 46.0475 19.8629C45.9055 19.4876 45.6656 19.1572 45.3528 18.9059C45.1688 18.741 44.9609 18.6024 44.7626 18.4518L44.7339 18.4757C44.7673 18.6215 44.8104 18.7649 44.8343 18.9107C44.9101 19.4586 44.8801 20.0159 44.7458 20.5525C44.5854 21.2381 44.3564 21.9058 44.0623 22.5456C43.7566 23.176 43.5958 23.8668 43.5916 24.5674C43.5975 24.9767 43.6902 25.3801 43.8637 25.7508C44.0371 26.1216 44.2873 26.4513 44.5977 26.7182C44.9707 27.0446 45.3914 27.3122 45.8451 27.5116C45.869 27.5116 45.9025 27.526 45.9145 27.5451C45.9483 27.5935 45.9794 27.6438 46.0077 27.6956C45.9527 27.7172 45.8906 27.765 45.8428 27.7554C45.4556 27.6789 45.0708 27.5977 44.6885 27.5164C43.4457 27.2306 42.2571 26.7464 41.1683 26.0825C40.1503 25.4986 39.2981 24.6645 38.6924 23.6592C38.166 22.7573 37.9112 21.7224 37.9587 20.6791C38.0143 19.4686 38.3409 18.286 38.9147 17.2187C39.225 16.6143 39.6 16.0453 40.0331 15.5219C40.4332 15.0082 40.6964 14.4014 40.7979 13.7582C40.9686 12.7904 40.9879 11.802 40.8552 10.8283C40.8146 10.4722 40.7477 10.1114 40.6999 9.76244C40.6999 9.70509 40.6999 9.61667 40.7405 9.59038C40.7811 9.56409 40.8624 9.59038 40.9126 9.61905C41.6147 10.0128 42.2217 10.5559 42.6908 11.21C43.1599 11.8641 43.4797 12.6133 43.6274 13.4045C43.7567 14.0502 43.7873 14.7117 43.7182 15.3666C43.668 15.8732 43.5916 16.3703 43.5055 16.9104Z" fill="white"/>
<path d="M55.184 90.4256C54.6779 90.2017 54.1354 90.0714 53.5828 90.0408C52.5791 89.9643 51.5706 89.9309 50.5669 89.8616C50.1463 89.8305 49.7089 89.8377 49.3457 89.5796C49.0661 89.7397 48.8127 89.9022 48.5451 90.0337C47.6083 90.4877 46.6595 90.9179 45.7275 91.3815C45.1817 91.6362 44.6938 91.9997 44.2936 92.4498C44.0879 92.6719 43.9538 92.9509 43.9088 93.2504C43.8849 93.4814 43.9121 93.7148 43.9885 93.9341C44.0649 94.1534 44.1886 94.3532 44.351 94.5193C44.8289 95.0547 45.3356 95.5517 45.8111 96.0823C47.8616 98.3813 49.9081 100.683 51.9506 102.986L52.1537 103.211C52.192 103.111 52.2182 103.046 52.2397 102.972C53.3056 99.9865 54.3707 97.0024 55.4349 94.0199C55.6428 93.4415 55.9129 92.8823 56.0754 92.2944C56.3263 91.4221 56.0204 90.8127 55.184 90.4256Z" fill="white"/>
<path d="M48.0328 28.991L20.9131 51.9189V106.168H75.162V51.9189L48.0328 28.991ZM57.7976 76.2616C58.6964 76.2616 59.5751 76.5284 60.3222 77.0282C61.0693 77.528 61.6513 78.2383 61.9944 79.0691C62.3375 79.8999 62.4263 80.8138 62.2495 81.6952C62.0728 82.5765 61.6384 83.3855 61.0015 84.0198C60.3645 84.654 59.5537 85.0849 58.6716 85.258C57.7896 85.431 56.876 85.3384 56.0466 84.9918C55.2173 84.6452 54.5095 84.0602 54.0128 83.311C53.5162 82.5618 53.2531 81.682 53.2569 80.7831C53.2578 80.188 53.3761 79.5989 53.6048 79.0495C53.8336 78.5001 54.1684 78.0012 54.5901 77.5813C55.0118 77.1613 55.5121 76.8286 56.0625 76.6022C56.6128 76.3758 57.2024 76.26 57.7976 76.2616ZM41.1859 45.4998H45.8963V41.7526H49.2611V45.4998H53.9715V48.8623H49.2611V66.9795H45.8963V48.8623H41.1859V45.4998ZM38.722 81.8896C39.62 81.8944 40.4963 82.1652 41.2403 82.668C41.9844 83.1707 42.5626 83.8828 42.902 84.7142C43.2413 85.5455 43.3266 86.4588 43.1469 87.3386C42.9673 88.2184 42.5308 89.0252 41.8927 89.657C41.2546 90.2887 40.4435 90.7171 39.5619 90.8879C38.6804 91.0588 37.768 90.9644 36.9401 90.6167C36.1122 90.2691 35.4059 89.6838 34.9106 88.9348C34.4153 88.1858 34.1532 87.3067 34.1575 86.4088C34.1603 85.8123 34.2806 85.2222 34.5115 84.6722C34.7425 84.1222 35.0795 83.6232 35.5034 83.2035C35.9273 82.7838 36.4297 82.4518 36.982 82.2263C37.5343 82.0009 38.1255 81.8865 38.722 81.8896ZM72.3014 78.7661C72.1852 78.9973 72.0467 79.2166 71.8879 79.4209C69.4384 82.6209 66.996 85.8281 64.5201 89.0089C63.9752 89.7067 63.9059 90.4428 64.0637 91.2362C64.5704 93.6821 65.4626 96.0319 66.7068 98.1978C66.8678 98.4897 66.9922 98.8003 67.0772 99.1226C67.1266 99.3085 67.1031 99.5063 67.0116 99.6755C66.9201 99.8447 66.7675 99.9726 66.5849 100.033C66.4293 100.107 66.2606 100.148 66.0886 100.156C65.9166 100.163 65.7449 100.136 65.5836 100.076C65.4094 99.9944 65.2625 99.8641 65.1606 99.701C64.8165 99.1728 64.513 98.6231 64.1736 98.0926C63.7161 97.3075 63.0685 96.65 62.2904 96.1807C61.642 95.8239 60.9004 95.6728 60.164 95.7475C59.4277 95.8222 58.7315 96.1192 58.168 96.599C57.4208 97.2471 56.7889 98.0171 56.2991 98.8765C55.4364 100.282 54.8007 101.797 54.1196 103.29C53.8472 103.888 53.5461 104.471 53.245 105.054C53.189 105.194 53.0966 105.317 52.9772 105.41C52.8579 105.502 52.716 105.561 52.5662 105.58H52.4324C51.9019 105.58 51.6127 105.159 51.2781 104.863C50.3222 104.007 49.4212 103.118 48.4844 102.253C47.3684 101.218 46.2093 100.239 44.8352 99.5552C44.202 99.2025 43.4904 99.0144 42.7656 99.0079C42.1403 98.9997 41.524 99.1564 40.9785 99.4623C40.4331 99.7681 39.9779 100.212 39.6588 100.75C39.2264 101.504 38.9485 102.337 38.8415 103.2C38.7555 103.723 38.6742 104.246 38.5906 104.772C38.5795 104.888 38.5378 104.998 38.4698 105.092C38.4017 105.187 38.3098 105.261 38.2034 105.307C37.9962 105.407 37.778 105.481 37.5534 105.53C37.3478 105.572 37.1338 105.532 36.9575 105.418C36.7813 105.304 36.6571 105.125 36.6118 104.92C36.521 104.523 36.521 104.111 36.6118 103.713C36.7599 102.638 36.8222 101.553 36.7982 100.468C36.8176 99.2781 36.724 98.0891 36.5186 96.9168C36.4098 96.3922 36.2554 95.878 36.0574 95.3802C35.9571 95.1561 35.7902 94.9683 35.5794 94.8424C34.1455 93.9534 32.7116 93.0764 31.2562 92.2136C29.1604 90.9781 27.0501 89.7665 24.9495 88.5381C24.6177 88.3589 24.3074 88.1424 24.0246 87.8929C23.2097 87.109 23.5132 86.22 24.1728 85.6058C24.2826 85.522 24.4116 85.467 24.5481 85.4457C24.6845 85.4244 24.8242 85.4375 24.9543 85.4839C25.695 85.6692 26.3978 85.9821 27.031 86.4088C28.5199 87.3241 29.9896 88.2704 31.4785 89.1881C32.7976 90.0262 34.197 90.7307 35.6559 91.2912C36.5403 91.6456 37.4825 91.8336 38.4352 91.8456C39.0054 91.8135 39.5684 91.7025 40.1081 91.5158C42.0821 90.9351 43.9701 90.1273 45.8652 89.3339C46.5128 89.0639 47.182 88.8321 47.844 88.5907C48.4151 88.3828 48.9146 88.4568 49.297 88.9754C49.3185 89.0017 49.3472 89.0232 49.3711 89.0471C49.395 89.071 49.4021 89.0328 49.4045 89.0232C49.6172 88.3063 50.2194 88.2465 50.8026 88.2346C52.0333 88.2059 53.2665 88.2346 54.4996 88.2203C55.822 88.198 57.1443 88.1557 58.4667 88.0936C59.4002 88.0919 60.3196 87.8665 61.1481 87.4364C61.9472 86.9698 62.6802 86.3984 63.3276 85.7372C64.6444 84.4204 65.7365 82.922 66.8215 81.4164C67.6556 80.2574 68.4944 79.0959 69.3571 77.9655C69.7089 77.5405 70.1028 77.1521 70.5329 76.8065C70.693 76.6611 70.9 76.578 71.1162 76.5723C71.3324 76.5666 71.5435 76.6387 71.7111 76.7754C72.4758 77.2749 72.6957 77.956 72.3014 78.7661Z" fill="white"/>
</g>
<defs>
<clipPath id="clip0_302_2528">
<rect width="290.994" height="120" fill="white" transform="translate(0.101562)"/>
</clipPath>
</defs>
</svg>
