<svg width="1140" height="327" viewBox="0 0 1140 327" fill="none" xmlns="http://www.w3.org/2000/svg">
<g clip-path="url(#clip0_262_2286)">
<rect width="1139.74" height="327" fill="white"/>
<path d="M249.738 192.381V275.913H207.971V157.077L249.738 192.381Z" fill="black"/>
<path d="M-0.514648 191.816V275.34H41.2514V156.504L-0.514648 191.816Z" fill="black"/>
<path d="M79.2709 305.837V290.364H88.6093V292.026H81.1446V297.254H88.1257V298.916H81.1446V304.175H88.7301V305.837H79.2709ZM99.9648 296.831L98.3631 297.285C98.2624 297.018 98.1138 296.758 97.9174 296.506C97.726 296.249 97.464 296.038 97.1316 295.872C96.7992 295.705 96.3736 295.622 95.8548 295.622C95.1446 295.622 94.5527 295.786 94.0793 296.113C93.6109 296.436 93.3766 296.846 93.3766 297.345C93.3766 297.788 93.5378 298.138 93.8602 298.395C94.1825 298.652 94.6862 298.866 95.3712 299.037L97.0938 299.46C98.1314 299.712 98.9046 300.098 99.4133 300.616C99.922 301.13 100.176 301.793 100.176 302.603C100.176 303.268 99.985 303.863 99.6022 304.386C99.2244 304.91 98.6956 305.323 98.0156 305.626C97.3356 305.928 96.5448 306.079 95.6432 306.079C94.4596 306.079 93.4799 305.822 92.7042 305.308C91.9285 304.794 91.4374 304.044 91.2309 303.057L92.9233 302.634C93.0845 303.258 93.3892 303.727 93.8375 304.039C94.2908 304.351 94.8827 304.507 95.613 304.507C96.4441 304.507 97.1039 304.331 97.5925 303.978C98.0861 303.621 98.3329 303.193 98.3329 302.694C98.3329 302.291 98.1919 301.954 97.9098 301.682C97.6277 301.405 97.1946 301.198 96.6103 301.062L94.6761 300.609C93.6134 300.357 92.8327 299.967 92.334 299.438C91.8404 298.904 91.5936 298.236 91.5936 297.436C91.5936 296.781 91.7774 296.202 92.1451 295.698C92.5179 295.194 93.0241 294.799 93.6637 294.512C94.3085 294.225 95.0388 294.081 95.8548 294.081C97.0032 294.081 97.9048 294.333 98.5596 294.837C99.2194 295.34 99.6878 296.005 99.9648 296.831ZM107.907 294.232V295.743H101.893V294.232H107.907ZM103.646 291.452H105.429V302.513C105.429 303.016 105.502 303.394 105.648 303.646C105.799 303.893 105.991 304.059 106.223 304.145C106.459 304.225 106.709 304.266 106.97 304.266C107.167 304.266 107.328 304.256 107.454 304.235C107.58 304.21 107.681 304.19 107.756 304.175L108.119 305.777C107.998 305.822 107.829 305.867 107.613 305.913C107.396 305.963 107.122 305.988 106.789 305.988C106.285 305.988 105.792 305.88 105.308 305.663C104.83 305.447 104.432 305.117 104.115 304.674C103.802 304.23 103.646 303.671 103.646 302.996V291.452ZM111.889 305.958C111.516 305.958 111.196 305.825 110.929 305.558C110.662 305.291 110.529 304.971 110.529 304.598C110.529 304.225 110.662 303.905 110.929 303.639C111.196 303.372 111.516 303.238 111.889 303.238C112.262 303.238 112.582 303.372 112.848 303.639C113.115 303.905 113.249 304.225 113.249 304.598C113.249 304.845 113.186 305.071 113.06 305.278C112.939 305.485 112.775 305.651 112.569 305.777C112.367 305.898 112.141 305.958 111.889 305.958ZM122.402 305.837V304.477L127.51 298.886C128.109 298.231 128.603 297.662 128.99 297.179C129.378 296.69 129.665 296.232 129.852 295.804C130.043 295.371 130.139 294.917 130.139 294.444C130.139 293.9 130.008 293.429 129.746 293.031C129.489 292.633 129.136 292.326 128.688 292.109C128.24 291.893 127.736 291.784 127.177 291.784C126.583 291.784 126.064 291.908 125.621 292.154C125.182 292.396 124.842 292.736 124.601 293.174C124.364 293.613 124.246 294.126 124.246 294.716H122.463C122.463 293.809 122.672 293.013 123.09 292.328C123.508 291.643 124.077 291.109 124.797 290.727C125.522 290.344 126.336 290.152 127.238 290.152C128.144 290.152 128.948 290.344 129.648 290.727C130.348 291.109 130.897 291.626 131.295 292.275C131.693 292.925 131.892 293.648 131.892 294.444C131.892 295.013 131.788 295.569 131.582 296.113C131.38 296.652 131.028 297.254 130.524 297.919C130.025 298.579 129.333 299.385 128.446 300.337L124.971 304.054V304.175H132.164V305.837H122.402ZM140.331 306.049C139.192 306.049 138.223 305.739 137.422 305.119C136.621 304.495 136.009 303.591 135.586 302.407C135.163 301.218 134.951 299.783 134.951 298.1C134.951 296.428 135.163 295 135.586 293.817C136.014 292.628 136.629 291.721 137.43 291.097C138.235 290.467 139.203 290.152 140.331 290.152C141.459 290.152 142.424 290.467 143.224 291.097C144.03 291.721 144.645 292.628 145.068 293.817C145.496 295 145.71 296.428 145.71 298.1C145.71 299.783 145.499 301.218 145.076 302.407C144.652 303.591 144.04 304.495 143.24 305.119C142.439 305.739 141.469 306.049 140.331 306.049ZM140.331 304.386C141.459 304.386 142.335 303.843 142.96 302.755C143.585 301.667 143.897 300.115 143.897 298.1C143.897 296.761 143.753 295.62 143.466 294.678C143.184 293.736 142.776 293.018 142.242 292.525C141.713 292.031 141.076 291.784 140.331 291.784C139.213 291.784 138.339 292.336 137.709 293.439C137.08 294.537 136.765 296.091 136.765 298.1C136.765 299.44 136.906 300.579 137.188 301.515C137.47 302.452 137.875 303.165 138.404 303.654C138.938 304.142 139.58 304.386 140.331 304.386ZM153.628 306.049C152.49 306.049 151.52 305.739 150.719 305.119C149.918 304.495 149.306 303.591 148.883 302.407C148.46 301.218 148.249 299.783 148.249 298.1C148.249 296.428 148.46 295 148.883 293.817C149.312 292.628 149.926 291.721 150.727 291.097C151.533 290.467 152.5 290.152 153.628 290.152C154.756 290.152 155.721 290.467 156.522 291.097C157.328 291.721 157.942 292.628 158.365 293.817C158.793 295 159.007 296.428 159.007 298.1C159.007 299.783 158.796 301.218 158.373 302.407C157.95 303.591 157.338 304.495 156.537 305.119C155.736 305.739 154.766 306.049 153.628 306.049ZM153.628 304.386C154.756 304.386 155.633 303.843 156.257 302.755C156.882 301.667 157.194 300.115 157.194 298.1C157.194 296.761 157.051 295.62 156.764 294.678C156.481 293.736 156.074 293.018 155.54 292.525C155.011 292.031 154.374 291.784 153.628 291.784C152.51 291.784 151.636 292.336 151.006 293.439C150.377 294.537 150.062 296.091 150.062 298.1C150.062 299.44 150.203 300.579 150.485 301.515C150.767 302.452 151.173 303.165 151.702 303.654C152.235 304.142 152.878 304.386 153.628 304.386ZM161.946 305.837L168.867 292.147V292.026H160.889V290.364H170.801V292.117L163.911 305.837H161.946Z" fill="black"/>
<path d="M112.257 43.9337C112.764 43.1157 113.263 42.3468 113.68 41.5615C114.822 39.4781 115.418 37.1399 115.414 34.7641C115.405 33.5111 115.203 32.267 114.817 31.075C113.958 28.521 113.387 25.8789 113.116 23.1979C112.54 18.4535 113.421 13.6461 115.643 9.4149C117.788 5.42416 121.121 2.19955 125.181 0.188079C125.209 0.168624 125.239 0.152174 125.271 0.139C125.459 0.0735615 125.672 -0.122754 125.819 0.139C125.845 0.224266 125.853 0.31396 125.844 0.402577C125.834 0.491193 125.806 0.576863 125.762 0.654328C125.385 1.54593 124.944 2.40481 124.592 3.30458C123.438 6.23508 122.923 9.37774 123.079 12.5232C123.297 16.257 124.315 19.9002 126.064 23.206C128.177 27.2899 130.997 30.9675 134.391 34.0688L134.547 34.1915C134.547 33.8398 134.498 33.529 134.481 33.2181C134.382 31.4921 134.643 29.7642 135.245 28.1437C135.848 26.5232 136.78 25.0453 137.982 23.8032C139.749 21.892 141.868 20.3394 144.223 19.2307C144.301 19.1827 144.387 19.1494 144.477 19.1325C144.608 19.1325 144.804 19.1325 144.862 19.2061C144.884 19.2691 144.892 19.3365 144.885 19.4031C144.878 19.4697 144.856 19.5338 144.821 19.5906C144.094 20.6141 143.618 21.7935 143.43 23.0343C143.025 25.4197 143.058 27.859 143.528 30.2325C144.3 34.321 145.586 38.2954 147.356 42.0605C148.558 44.6534 149.368 47.4099 149.761 50.2403C150.397 54.2586 149.523 58.37 147.307 61.782C145.629 64.2337 143.435 66.2885 140.878 67.8023C138.698 69.0964 136.379 70.1418 133.966 70.9188C133.778 70.9761 133.573 71.0579 133.467 70.8125C133.361 70.5671 133.541 70.469 133.704 70.3626C135.201 69.4736 136.325 68.0716 136.867 66.4168C137.408 64.762 137.331 62.9669 136.649 61.3648C136.236 60.1282 135.604 58.9757 134.784 57.962C134.037 57.0244 133.587 55.8851 133.492 54.6901C133.345 53.3467 133.386 51.9895 133.614 50.6575C133.034 51.028 132.522 51.4956 132.101 52.0399C131.076 53.3701 130.564 55.0256 130.661 56.7023C130.682 57.7037 130.853 58.6963 131.169 59.6471C131.226 59.8352 131.324 60.0561 131.079 60.1379C130.995 60.146 130.911 60.1347 130.833 60.1049C130.755 60.0751 130.685 60.0276 130.629 59.9661C129.383 58.6286 128.666 56.8848 128.608 55.0582C128.588 54.3083 128.687 53.56 128.903 52.8415C129.497 51.0364 129.796 49.147 129.786 47.2465C129.776 45.4956 129.315 43.7769 128.447 42.2566C127.578 40.7362 126.332 39.4656 124.829 38.5677L124.682 38.4859C124.671 38.5399 124.671 38.5955 124.682 38.6495C125.384 40.2937 125.709 42.074 125.634 43.8601C125.559 45.6462 125.086 47.3929 124.248 48.9724C123.131 51.2206 121.589 53.2316 119.709 54.8946C119.559 54.9754 119.395 55.0281 119.226 55.05C119.167 54.9014 119.134 54.7437 119.128 54.5838C119.294 53.5623 119.188 52.5149 118.818 51.5481C118.449 50.5812 117.831 49.7293 117.026 49.0788C116.543 48.6534 116.003 48.2608 115.496 47.9009L115.414 47.9663C115.504 48.3426 115.619 48.7107 115.676 49.0951C115.874 50.5172 115.796 51.9642 115.447 53.3568C115.038 55.14 114.443 56.8755 113.672 58.5346C112.882 60.1787 112.468 61.9783 112.461 63.8024C112.478 64.8645 112.72 65.911 113.171 66.8726C113.623 67.8342 114.273 68.6892 115.079 69.381C116.056 70.2334 117.16 70.9288 118.351 71.4423C118.408 71.4423 118.498 71.4424 118.531 71.5242C118.618 71.6502 118.697 71.7813 118.768 71.9168C118.629 71.974 118.465 72.1049 118.343 72.0804C117.336 71.8759 116.339 71.6632 115.341 71.4342C112.098 70.7081 108.996 69.4593 106.155 67.7369C103.525 66.2274 101.319 64.0777 99.7417 61.4875C98.3786 59.1438 97.7172 56.4581 97.8358 53.7494C97.9874 50.6008 98.8427 47.5262 100.339 44.7517C101.139 43.18 102.11 41.7014 103.234 40.3427C104.276 39.0101 104.961 37.4333 105.222 35.762C105.666 33.2468 105.719 30.6779 105.378 28.1466C105.271 27.2223 105.099 26.3062 104.977 25.3819C104.961 25.3042 104.961 25.224 104.978 25.1465C104.995 25.0689 105.028 24.9959 105.075 24.932C105.165 24.8665 105.394 24.932 105.525 25.0056C107.345 26.0286 108.919 27.4372 110.137 29.1329C111.355 30.8285 112.187 32.77 112.576 34.8214C112.912 36.4983 112.992 38.2165 112.813 39.9174C112.699 41.2425 112.461 42.5349 112.257 43.9337Z" fill="black"/>
<path d="M142.6 234.916C141.283 234.337 139.873 233.999 138.437 233.918C135.827 233.722 133.21 233.632 130.6 233.452C129.495 233.509 128.396 233.257 127.427 232.724C126.707 233.133 126.044 233.542 125.349 233.902C122.895 235.079 120.441 236.2 117.987 237.402C116.565 238.063 115.293 239.007 114.249 240.175C113.715 240.752 113.367 241.476 113.251 242.253C113.192 242.85 113.264 243.452 113.464 244.017C113.663 244.583 113.984 245.098 114.404 245.525C115.623 246.916 116.965 248.208 118.192 249.615C123.525 255.586 128.842 261.563 134.142 267.545L134.674 268.134C134.772 267.872 134.838 267.7 134.895 267.537C137.66 259.782 140.427 252.031 143.197 244.282C143.737 242.785 144.416 241.329 144.833 239.799C145.561 237.509 144.76 235.914 142.6 234.916Z" fill="black"/>
<path d="M124.021 75.3115L53.5679 134.877V275.782H194.498V134.877L124.021 75.3115ZM149.378 198.123C151.707 198.133 153.981 198.833 155.912 200.134C157.843 201.436 159.345 203.281 160.228 205.436C161.111 207.591 161.336 209.959 160.873 212.242C160.41 214.524 159.281 216.619 157.629 218.26C155.976 219.901 153.874 221.015 151.589 221.462C149.303 221.909 146.936 221.668 144.787 220.77C142.638 219.872 140.804 218.357 139.516 216.417C138.228 214.477 137.543 212.198 137.55 209.869C137.552 208.319 137.861 206.785 138.458 205.354C139.055 203.923 139.929 202.625 141.03 201.533C142.131 200.442 143.436 199.579 144.872 198.993C146.307 198.408 147.844 198.112 149.394 198.123H149.378ZM106.238 118.198H118.507V108.464H127.243V118.198H139.513V126.934H127.243V174.001H118.475V126.934H106.205L106.238 118.198ZM99.8329 212.74C102.161 212.755 104.433 213.459 106.361 214.764C108.289 216.069 109.787 217.916 110.666 220.072C111.545 222.228 111.766 224.596 111.3 226.877C110.834 229.158 109.702 231.25 108.048 232.888C106.393 234.527 104.291 235.638 102.005 236.082C99.7195 236.526 97.3537 236.282 95.2064 235.383C93.0591 234.483 91.2266 232.967 89.9405 231.026C88.6544 229.085 87.9723 226.807 87.9803 224.478C87.9868 222.929 88.2985 221.396 88.8979 219.968C89.4972 218.539 90.3723 217.242 91.4731 216.152C92.574 215.062 93.8789 214.199 95.3134 213.614C96.7478 213.029 98.2836 212.732 99.8329 212.74ZM187.07 204.626C186.767 205.227 186.405 205.797 185.991 206.327C179.627 214.638 173.288 222.973 166.85 231.235C166.221 232.044 165.787 232.988 165.582 233.992C165.378 234.997 165.409 236.035 165.672 237.026C166.986 243.381 169.302 249.486 172.535 255.112C172.956 255.87 173.28 256.678 173.5 257.517C173.626 257.999 173.564 258.511 173.327 258.95C173.09 259.388 172.696 259.721 172.224 259.881C171.819 260.069 171.381 260.175 170.934 260.194C170.488 260.212 170.042 260.142 169.623 259.987C169.17 259.774 168.787 259.436 168.519 259.013C167.627 257.647 166.834 256.208 165.958 254.834C164.763 252.797 163.075 251.093 161.05 249.877C159.365 248.945 157.436 248.55 155.52 248.743C153.604 248.936 151.793 249.708 150.327 250.956C148.401 252.637 146.769 254.627 145.501 256.846C143.383 260.545 141.493 264.369 139.84 268.298C139.137 269.844 138.352 271.365 137.566 272.878C137.423 273.243 137.184 273.562 136.874 273.802C136.565 274.043 136.196 274.195 135.808 274.244H135.48C134.098 274.244 133.346 273.148 132.478 272.363C130.025 270.146 127.652 267.831 125.223 265.582C122.411 262.808 119.219 260.448 115.743 258.572C114.097 257.658 112.25 257.169 110.368 257.148C108.748 257.137 107.153 257.548 105.741 258.343C104.329 259.138 103.15 260.289 102.32 261.68C101.202 263.642 100.482 265.804 100.201 268.044C99.9801 269.402 99.7674 270.768 99.5547 272.134C99.5229 272.434 99.4124 272.721 99.2343 272.965C99.0562 273.21 98.8169 273.402 98.5404 273.524C98.0039 273.785 97.4382 273.98 96.8554 274.105C96.3198 274.217 95.7617 274.113 95.3023 273.816C94.8428 273.519 94.5191 273.053 94.4015 272.518C94.1643 271.488 94.1643 270.416 94.4015 269.385C94.7829 266.594 94.9443 263.777 94.884 260.96C94.9326 257.869 94.6889 254.779 94.1561 251.733C93.8728 250.371 93.4732 249.036 92.9618 247.742C92.7023 247.161 92.275 246.671 91.7348 246.335C88.013 244.036 84.2749 241.746 80.504 239.529C75.0644 236.315 69.5758 233.173 64.1444 229.975C63.2855 229.523 62.4813 228.975 61.7477 228.339C59.6209 226.302 60.4144 224.012 62.124 222.393C62.4098 222.176 62.7448 222.035 63.099 221.981C63.4531 221.926 63.8152 221.961 64.1525 222.082C66.0802 222.558 67.9081 223.372 69.5512 224.487C73.4203 226.859 77.2402 229.321 81.1093 231.701C84.5012 233.88 88.1017 235.716 91.8576 237.182C94.1556 238.103 96.6045 238.591 99.0803 238.621C100.567 238.551 102.037 238.276 103.448 237.803C108.541 236.179 113.541 234.275 118.426 232.102C120.111 231.398 121.845 230.801 123.562 230.172C124.206 229.851 124.945 229.775 125.64 229.958C126.335 230.142 126.94 230.572 127.342 231.169C127.399 231.235 127.472 231.292 127.538 231.358C127.603 231.423 127.62 231.358 127.628 231.292C128.176 229.444 129.738 229.28 131.251 229.247C134.45 229.174 137.656 229.247 140.855 229.206C144.29 229.149 147.734 229.043 151.161 228.879C153.588 228.875 155.978 228.289 158.13 227.17C160.209 225.961 162.113 224.475 163.791 222.752C167.115 219.263 170.152 215.51 172.87 211.53C175.038 208.52 177.189 205.501 179.455 202.532C180.371 201.428 181.396 200.419 182.514 199.522C182.93 199.145 183.468 198.929 184.029 198.914C184.59 198.899 185.138 199.086 185.574 199.44C187.529 200.749 188.093 202.524 187.07 204.626Z" fill="black"/>
<path d="M99.687 236.29C102.018 236.305 104.302 235.627 106.248 234.343C108.193 233.059 109.715 231.226 110.618 229.077C111.522 226.928 111.768 224.559 111.324 222.271C110.881 219.982 109.768 217.876 108.127 216.22C106.486 214.564 104.39 213.432 102.106 212.968C99.821 212.504 97.45 212.728 95.2928 213.613C93.1356 214.497 91.2894 216.001 89.9879 217.936C88.6864 219.87 87.9882 222.147 87.9817 224.478C87.988 227.591 89.2198 230.575 91.4106 232.786C93.6014 234.997 96.5748 236.256 99.687 236.29Z" fill="white"/>
<path d="M149.347 221.673C151.676 221.673 153.952 220.982 155.889 219.689C157.825 218.396 159.335 216.558 160.227 214.407C161.12 212.256 161.354 209.889 160.902 207.605C160.449 205.321 159.33 203.222 157.685 201.573C156.04 199.925 153.944 198.801 151.66 198.344C149.377 197.887 147.01 198.117 144.857 199.004C142.704 199.892 140.863 201.398 139.566 203.332C138.268 205.266 137.573 207.541 137.569 209.869C137.569 212.995 138.809 215.994 141.017 218.207C143.225 220.42 146.221 221.666 149.347 221.673Z" fill="white"/>
<path d="M324.138 165.689H314.361C314.082 164.086 313.568 162.665 312.818 161.428C312.069 160.173 311.137 159.11 310.021 158.238C308.906 157.367 307.633 156.713 306.204 156.278C304.793 155.825 303.268 155.598 301.629 155.598C298.719 155.598 296.139 156.33 293.891 157.794C291.643 159.241 289.882 161.367 288.61 164.173C287.338 166.961 286.702 170.369 286.702 174.395C286.702 178.49 287.338 181.941 288.61 184.747C289.9 187.536 291.66 189.645 293.891 191.074C296.139 192.486 298.71 193.191 301.603 193.191C303.207 193.191 304.705 192.982 306.1 192.564C307.511 192.128 308.775 191.492 309.89 190.656C311.023 189.819 311.973 188.791 312.74 187.571C313.524 186.351 314.065 184.956 314.361 183.388L324.138 183.44C323.772 185.985 322.979 188.372 321.759 190.603C320.557 192.834 318.979 194.804 317.027 196.512C315.075 198.202 312.792 199.527 310.178 200.485C307.564 201.426 304.662 201.897 301.472 201.897C296.767 201.897 292.566 200.808 288.872 198.629C285.177 196.451 282.266 193.305 280.14 189.192C278.014 185.078 276.95 180.146 276.95 174.395C276.95 168.626 278.022 163.694 280.166 159.598C282.31 155.485 285.229 152.339 288.924 150.16C292.619 147.982 296.802 146.892 301.472 146.892C304.453 146.892 307.224 147.311 309.786 148.147C312.348 148.984 314.631 150.213 316.635 151.833C318.64 153.437 320.287 155.406 321.576 157.742C322.883 160.06 323.737 162.709 324.138 165.689ZM380.862 174.395C380.862 180.164 379.781 185.105 377.62 189.218C375.476 193.313 372.548 196.451 368.836 198.629C365.141 200.808 360.95 201.897 356.261 201.897C351.573 201.897 347.373 200.808 343.66 198.629C339.966 196.433 337.038 193.287 334.876 189.192C332.733 185.078 331.661 180.146 331.661 174.395C331.661 168.626 332.733 163.694 334.876 159.598C337.038 155.485 339.966 152.339 343.66 150.16C347.373 147.982 351.573 146.892 356.261 146.892C360.95 146.892 365.141 147.982 368.836 150.16C372.548 152.339 375.476 155.485 377.62 159.598C379.781 163.694 380.862 168.626 380.862 174.395ZM371.11 174.395C371.11 170.334 370.474 166.909 369.202 164.121C367.947 161.315 366.204 159.197 363.973 157.768C361.743 156.321 359.172 155.598 356.261 155.598C353.351 155.598 350.78 156.321 348.549 157.768C346.318 159.197 344.567 161.315 343.294 164.121C342.04 166.909 341.412 170.334 341.412 174.395C341.412 178.456 342.04 181.889 343.294 184.695C344.567 187.484 346.318 189.601 348.549 191.048C350.78 192.477 353.351 193.191 356.261 193.191C359.172 193.191 361.743 192.477 363.973 191.048C366.204 189.601 367.947 187.484 369.202 184.695C370.474 181.889 371.11 178.456 371.11 174.395ZM434.03 147.624V201.165H425.403L400.175 164.696H399.73V201.165H390.031V147.624H398.711L423.912 184.12H424.383V147.624H434.03ZM451.761 147.624L465.695 189.767H466.244L480.152 147.624H490.819L471.943 201.165H459.97L441.121 147.624H451.761ZM497.871 201.165V147.624H532.693V155.755H507.57V170.29H530.889V178.421H507.57V193.035H532.902V201.165H497.871ZM586.586 147.624V201.165H577.959L552.731 164.696H552.287V201.165H542.588V147.624H551.267L576.469 184.12H576.94V147.624H586.586ZM604.03 201.165H593.678L612.527 147.624H624.5L643.375 201.165H633.023L618.722 158.604H618.304L604.03 201.165ZM604.37 180.172H632.604V187.963H604.37V180.172ZM694.426 147.624V201.165H685.798L660.571 164.696H660.126V201.165H650.427V147.624H659.107L684.308 184.12H684.779V147.624H694.426ZM702.641 155.755V147.624H745.358V155.755H728.81V201.165H719.189V155.755H702.641ZM817.682 165.689H807.905C807.626 164.086 807.112 162.665 806.363 161.428C805.613 160.173 804.681 159.11 803.565 158.238C802.45 157.367 801.178 156.713 799.748 156.278C798.337 155.825 796.812 155.598 795.173 155.598C792.263 155.598 789.683 156.33 787.435 157.794C785.187 159.241 783.427 161.367 782.154 164.173C780.882 166.961 780.246 170.369 780.246 174.395C780.246 178.49 780.882 181.941 782.154 184.747C783.444 187.536 785.204 189.645 787.435 191.074C789.683 192.486 792.254 193.191 795.147 193.191C796.751 193.191 798.25 192.982 799.644 192.564C801.056 192.128 802.319 191.492 803.435 190.656C804.567 189.819 805.517 188.791 806.284 187.571C807.068 186.351 807.609 184.956 807.905 183.388L817.682 183.44C817.316 185.985 816.523 188.372 815.303 190.603C814.101 192.834 812.524 194.804 810.572 196.512C808.62 198.202 806.336 199.527 803.722 200.485C801.108 201.426 798.206 201.897 795.017 201.897C790.311 201.897 786.111 200.808 782.416 198.629C778.721 196.451 775.81 193.305 773.684 189.192C771.558 185.078 770.495 180.146 770.495 174.395C770.495 168.626 771.566 163.694 773.71 159.598C775.854 155.485 778.773 152.339 782.468 150.16C786.163 147.982 790.346 146.892 795.017 146.892C797.997 146.892 800.768 147.311 803.33 148.147C805.892 148.984 808.175 150.213 810.179 151.833C812.184 153.437 813.831 155.406 815.12 157.742C816.428 160.06 817.282 162.709 817.682 165.689ZM826.564 201.165V147.624H836.263V170.29H861.073V147.624H870.798V201.165H861.073V178.421H836.263V201.165H826.564ZM891.046 147.624V201.165H881.347V147.624H891.046ZM901.549 201.165V147.624H911.248V193.035H934.829V201.165H901.549ZM961.39 201.165H943.247V147.624H961.756C967.071 147.624 971.638 148.696 975.455 150.84C979.289 152.966 982.234 156.025 984.291 160.016C986.347 164.007 987.376 168.783 987.376 174.342C987.376 179.92 986.339 184.712 984.265 188.721C982.208 192.73 979.237 195.806 975.35 197.949C971.481 200.093 966.827 201.165 961.39 201.165ZM952.946 192.773H960.919C964.649 192.773 967.76 192.093 970.252 190.734C972.744 189.357 974.618 187.309 975.873 184.59C977.128 181.854 977.755 178.438 977.755 174.342C977.755 170.247 977.128 166.848 975.873 164.147C974.618 161.428 972.762 159.397 970.304 158.055C967.864 156.696 964.832 156.016 961.207 156.016H952.946V192.773ZM996.591 201.165V147.624H1016.67C1020.78 147.624 1024.23 148.339 1027.02 149.768C1029.83 151.197 1031.94 153.202 1033.37 155.781C1034.82 158.343 1035.54 161.332 1035.54 164.748C1035.54 168.181 1034.81 171.162 1033.35 173.689C1031.9 176.199 1029.77 178.142 1026.94 179.519C1024.12 180.878 1020.65 181.558 1016.54 181.558H1002.24V173.506H1015.23C1017.64 173.506 1019.61 173.175 1021.14 172.512C1022.67 171.833 1023.81 170.848 1024.54 169.558C1025.29 168.251 1025.66 166.648 1025.66 164.748C1025.66 162.848 1025.29 161.227 1024.54 159.885C1023.79 158.526 1022.65 157.498 1021.11 156.801C1019.58 156.086 1017.6 155.729 1015.18 155.729H1006.29V201.165H996.591ZM1024.25 176.904L1037.5 201.165H1026.68L1013.66 176.904H1024.25ZM1044.47 201.165V147.624H1079.29V155.755H1054.17V170.29H1077.49V178.421H1054.17V193.035H1079.5V201.165H1044.47ZM1133.19 147.624V201.165H1124.56L1099.33 164.696H1098.89V201.165H1089.19V147.624H1097.87L1123.07 184.12H1123.54V147.624H1133.19Z" fill="black"/>
<path d="M475.963 228.132H480.091L489.795 251.835H490.129L499.834 228.132H503.961V256.687H500.726V234.992H500.447L491.524 256.687H488.4L479.477 234.992H479.198V256.687H475.963V228.132ZM514.352 228.132V256.687H510.894V228.132H514.352ZM543.928 228.132V256.687H540.582L525.021 234.267H524.742V256.687H521.285V228.132H524.631L540.247 250.608H540.526V228.132H543.928ZM554.305 228.132V256.687H550.847V228.132H554.305ZM576.854 235.271C576.687 233.858 576.008 232.761 574.818 231.98C573.628 231.199 572.169 230.809 570.44 230.809C569.176 230.809 568.07 231.013 567.122 231.422C566.183 231.831 565.449 232.394 564.919 233.11C564.398 233.825 564.138 234.639 564.138 235.55C564.138 236.312 564.319 236.967 564.682 237.515C565.054 238.055 565.528 238.505 566.104 238.868C566.68 239.221 567.284 239.514 567.917 239.746C568.549 239.969 569.13 240.151 569.659 240.29L572.559 241.071C573.303 241.266 574.13 241.536 575.041 241.88C575.962 242.224 576.84 242.693 577.677 243.288C578.522 243.873 579.22 244.626 579.768 245.547C580.316 246.467 580.591 247.596 580.591 248.935C580.591 250.478 580.186 251.872 579.378 253.118C578.578 254.363 577.407 255.353 575.864 256.087C574.33 256.822 572.467 257.189 570.273 257.189C568.228 257.189 566.457 256.859 564.961 256.199C563.473 255.539 562.302 254.619 561.447 253.438C560.601 252.258 560.122 250.887 560.011 249.325H563.58C563.673 250.403 564.036 251.296 564.668 252.002C565.309 252.699 566.118 253.22 567.094 253.564C568.079 253.898 569.139 254.066 570.273 254.066C571.593 254.066 572.778 253.852 573.828 253.424C574.879 252.987 575.711 252.383 576.324 251.612C576.938 250.831 577.244 249.92 577.244 248.879C577.244 247.931 576.979 247.159 576.45 246.564C575.92 245.969 575.223 245.486 574.358 245.114C573.494 244.743 572.559 244.417 571.556 244.138L568.042 243.134C565.811 242.493 564.045 241.577 562.744 240.388C561.442 239.198 560.792 237.641 560.792 235.717C560.792 234.118 561.224 232.724 562.088 231.534C562.962 230.335 564.133 229.405 565.602 228.745C567.08 228.076 568.73 227.742 570.552 227.742C572.392 227.742 574.028 228.072 575.46 228.731C576.891 229.382 578.025 230.274 578.862 231.409C579.708 232.543 580.154 233.83 580.2 235.271H576.854ZM584.714 231.199V228.132H606.13V231.199H597.151V256.687H593.693V231.199H584.714ZM611.467 256.687V228.132H621.115C623.346 228.132 625.177 228.513 626.609 229.275C628.04 230.028 629.1 231.065 629.788 232.385C630.476 233.704 630.82 235.206 630.82 236.888C630.82 238.57 630.476 240.062 629.788 241.364C629.1 242.665 628.045 243.688 626.623 244.431C625.201 245.165 623.384 245.533 621.171 245.533H613.363V242.409H621.06C622.584 242.409 623.811 242.186 624.741 241.74C625.679 241.294 626.358 240.662 626.776 239.844C627.204 239.017 627.418 238.031 627.418 236.888C627.418 235.745 627.204 234.745 626.776 233.89C626.349 233.035 625.665 232.375 624.727 231.91C623.788 231.436 622.547 231.199 621.004 231.199H614.925V256.687H611.467ZM624.908 243.859L631.935 256.687H627.92L621.004 243.859H624.908ZM633.169 228.132H637.129L645.048 241.461H645.383L653.303 228.132H657.262L646.945 244.919V256.687H643.487V244.919L633.169 228.132ZM676.235 228.132V256.687H672.777V228.132H676.235ZM705.811 228.132V256.687H702.465L686.905 234.267H686.626V256.687H683.168V228.132H686.514L702.13 250.608H702.409V228.132H705.811ZM711.169 231.199V228.132H732.585V231.199H723.606V256.687H720.148V231.199H711.169ZM737.922 256.687V228.132H755.155V231.199H741.38V240.848H754.263V243.915H741.38V253.619H755.378V256.687H737.922ZM761.387 256.687V228.132H771.036C773.267 228.132 775.098 228.513 776.529 229.275C777.961 230.028 779.021 231.065 779.708 232.385C780.396 233.704 780.74 235.206 780.74 236.888C780.74 238.57 780.396 240.062 779.708 241.364C779.021 242.665 777.966 243.688 776.543 244.431C775.121 245.165 773.304 245.533 771.092 245.533H763.284V242.409H770.98C772.505 242.409 773.732 242.186 774.661 241.74C775.6 241.294 776.278 240.662 776.697 239.844C777.124 239.017 777.338 238.031 777.338 236.888C777.338 235.745 777.124 234.745 776.697 233.89C776.269 233.035 775.586 232.375 774.647 231.91C773.708 231.436 772.467 231.199 770.924 231.199H764.845V256.687H761.387ZM774.828 243.859L781.856 256.687H777.84L770.924 243.859H774.828ZM809.145 228.132V256.687H805.799L790.239 234.267H789.96V256.687H786.502V228.132H789.848L805.464 250.608H805.743V228.132H809.145ZM817.236 256.687H813.61L824.095 228.132H827.665L838.15 256.687H834.525L825.992 232.649H825.769L817.236 256.687ZM818.574 245.533H833.186V248.6H818.574V245.533ZM837.7 231.199V228.132H859.116V231.199H850.137V256.687H846.679V231.199H837.7ZM867.911 228.132V256.687H864.453V228.132H867.911ZM898.937 242.409C898.937 245.421 898.393 248.024 897.306 250.217C896.218 252.411 894.726 254.103 892.83 255.293C890.934 256.482 888.768 257.077 886.333 257.077C883.897 257.077 881.732 256.482 879.835 255.293C877.939 254.103 876.447 252.411 875.36 250.217C874.272 248.024 873.729 245.421 873.729 242.409C873.729 239.398 874.272 236.795 875.36 234.601C876.447 232.408 877.939 230.716 879.835 229.526C881.732 228.336 883.897 227.742 886.333 227.742C888.768 227.742 890.934 228.336 892.83 229.526C894.726 230.716 896.218 232.408 897.306 234.601C898.393 236.795 898.937 239.398 898.937 242.409ZM895.591 242.409C895.591 239.937 895.177 237.85 894.35 236.149C893.532 234.448 892.421 233.161 891.018 232.287C889.623 231.413 888.062 230.976 886.333 230.976C884.604 230.976 883.038 231.413 881.634 232.287C880.24 233.161 879.129 234.448 878.302 236.149C877.484 237.85 877.075 239.937 877.075 242.409C877.075 244.882 877.484 246.969 878.302 248.67C879.129 250.371 880.24 251.658 881.634 252.532C883.038 253.406 884.604 253.843 886.333 253.843C888.062 253.843 889.623 253.406 891.018 252.532C892.421 251.658 893.532 250.371 894.35 248.67C895.177 246.969 895.591 244.882 895.591 242.409ZM927.395 228.132V256.687H924.048L908.488 234.267H908.209V256.687H904.751V228.132H908.098L923.714 250.608H923.992V228.132H927.395ZM935.485 256.687H931.86L942.345 228.132H945.914L956.399 256.687H952.774L944.241 232.649H944.018L935.485 256.687ZM936.823 245.533H951.435V248.6H936.823V245.533ZM960.847 256.687V228.132H964.305V253.619H977.578V256.687H960.847Z" fill="black"/>
</g>
<defs>
<clipPath id="clip0_262_2286">
<rect width="1139.74" height="327" fill="white"/>
</clipPath>
</defs>
</svg>
